<?xml version="1.0" encoding="UTF-8" standalone="no"?>
<!-- Created with Inkscape (http://www.inkscape.org/) -->

<svg
   xmlns:dc="http://purl.org/dc/elements/1.1/"
   xmlns:cc="http://creativecommons.org/ns#"
   xmlns:rdf="http://www.w3.org/1999/02/22-rdf-syntax-ns#"
   xmlns:svg="http://www.w3.org/2000/svg"
   xmlns="http://www.w3.org/2000/svg"
   xmlns:sodipodi="http://sodipodi.sourceforge.net/DTD/sodipodi-0.dtd"
   xmlns:inkscape="http://www.inkscape.org/namespaces/inkscape"
   width="210mm"
   height="297mm"
   viewBox="0 0 210 297"
   version="1.1"
   id="svg8"
   inkscape:version="0.92.4 (5da689c313, 2019-01-14)"
   sodipodi:docname="t_logo.svg">
  <defs
     id="defs2" />
  <sodipodi:namedview
     id="base"
     pagecolor="#ffffff"
     bordercolor="#666666"
     borderopacity="1.0"
     inkscape:pageopacity="0.0"
     inkscape:pageshadow="2"
     inkscape:zoom="0.7"
     inkscape:cx="466.66457"
     inkscape:cy="835.04946"
     inkscape:document-units="mm"
     inkscape:current-layer="layer1"
     showgrid="false"
     inkscape:window-width="1920"
     inkscape:window-height="1017"
     inkscape:window-x="-8"
     inkscape:window-y="-8"
     inkscape:window-maximized="1" />
  <metadata
     id="metadata5">
    <rdf:RDF>
      <cc:Work
         rdf:about="">
        <dc:format>image/svg+xml</dc:format>
        <dc:type
           rdf:resource="http://purl.org/dc/dcmitype/StillImage" />
        <dc:title></dc:title>
      </cc:Work>
    </rdf:RDF>
  </metadata>
  <g
     inkscape:label="Layer 1"
     inkscape:groupmode="layer"
     id="layer1">
    <path
       style="fill:#ffffff;stroke:#000000;stroke-width:0.52769071;stroke-miterlimit:4;stroke-dasharray:none;stroke-opacity:1"
       d="m 332.64201,105.96122 c 0.0413,0.007 0.0913,0.008 0.14958,0.001 0.8126,-0.0824 4.04003,-4.59817 4.77436,-7.806347 0.73434,-3.20817 1.71401,-10.220942 -3.06854,-16.449996 l 2.81333,-6.305395 -2.86605,1.426815 -3.09293,2.735144 c 0,0 -4.44542,-3.155983 -10.43473,-3.033837 -6.63208,-0.474286 -15.11037,4.828293 -15.11037,4.828293 17.43984,-5.165985 36.18371,1.666013 27.32828,22.935823 -0.64554,1.19623 -0.78132,1.61376 -0.49291,1.66766 z"
       id="path49-6-8-8"
       inkscape:connector-curvature="0"
       sodipodi:nodetypes="cczccccccccc" />
    <path
       style="fill:#ffffff;stroke:#000000;stroke-width:0.5;stroke-miterlimit:4;stroke-dasharray:none;stroke-opacity:1"
       d="m 300.91477,141.17221 -2.58996,0.28323 -1.92731,1.17385 c -2.66383,-1.74584 -5.24896,-2.63437 -8.3245,-2.63618 -8.53748,8e-5 -15.36332,6.74786 -15.36342,15.18907 0.007,4.29425 1.33128,8.33712 4.64398,11.44651 l -2.33612,2.6866 2.36376,-0.2006 1.63391,-1.25191 c 2.63975,1.44012 4.85869,2.26459 8.86762,2.12826 8.53775,0.061 14.73945,-6.31407 14.73936,-14.78122 -0.006,-4.13415 -1.46254,-8.10028 -4.44699,-11.08795 z m -4.7494,5.07457 c 2.29156,2.2891 3.75624,5.41883 3.67209,9.76888 -0.10299,5.32324 -5.31732,11.87876 -12.038,11.36055 -2.24415,-0.006 -5.05008,-0.78173 -6.97137,-1.92833 z m -17.02264,17.96525 c -2.44448,-2.30423 -3.71247,-5.73164 -3.71797,-9.07093 1.1e-4,-6.75714 5.54046,-12.23483 12.3747,-12.23472 2.36344,0.004 4.80691,0.79731 6.7953,2.06047 z"
       id="path915-4-1-4"
       inkscape:connector-curvature="0"
       sodipodi:nodetypes="ccccccccccccccscccccccc" />
    <ellipse
       style="fill:#ffffff;stroke:#000000;stroke-width:0.45294484;stroke-miterlimit:4;stroke-dasharray:none;stroke-opacity:1"
       id="path915"
       cx="406.83932"
       cy="208.44057"
       rx="22.769915"
       ry="22.513111" />
    <ellipse
       style="fill:#ffffff;stroke:#000000;stroke-width:0.36257604;stroke-miterlimit:4;stroke-dasharray:none;stroke-opacity:1"
       id="path915-4"
       cx="394.57169"
       cy="225.62068"
       rx="18.226999"
       ry="18.021433" />
    <path
       id="path49-6-8-4"
       style="fill:#ffffff;stroke:#000000;stroke-width:0.47754127;stroke-miterlimit:4;stroke-dasharray:none;stroke-opacity:1"
       d="m 380.78071,137.5463 c -0.69852,-0.10497 -5.08548,4.77373 -5.90886,6.57151 -0.93228,2.0355 -1.243,7.41348 -0.6172,10.67576 0.37139,1.93602 1.21233,4.64042 1.77787,5.71622 1.51339,2.87893 4.5832,5.63358 7.9732,7.15498 1.55339,0.69712 4.39383,1.56166 6.5561,1.9566 2.16225,0.39496 4.30331,-0.11179 5.32887,-0.82568 0.70769,-0.49253 3.91407,-4.12446 3.76345,-4.26286 -0.0405,-0.0373 -0.51766,0.14709 -1.06028,0.41005 -2.04769,0.99214 -4.53281,0.93848 -5.78196,0.90211 -1.14925,-0.0719 -2.2304,-0.43929 -3.30644,-0.77825 -3.23208,-0.98903 -6.68852,-3.31287 -8.72037,-5.76327 -0.91374,-1.10194 -1.9724,-3.10066 -2.33729,-4.41277 -0.91511,-3.29061 -0.98844,-7.9051 -0.18952,-11.96909 0.32162,-1.63663 0.72505,-2.4624 1.92349,-3.93775 0.87415,-1.07611 0.99964,-1.37721 0.59891,-1.43757 z"
       inkscape:connector-curvature="0"
       sodipodi:nodetypes="ccccccccccccccccc" />
    <path
       style="fill:#ffffff;stroke:#000000;stroke-width:0.5;stroke-miterlimit:4;stroke-dasharray:none;stroke-opacity:1"
       d="m 304.37013,87.959911 c -0.12903,-0.258052 -3.29788,2.162614 -3.61118,5.678672 -0.31331,3.51607 -0.67104,10.231827 4.16413,15.887977 l -1.49981,5.36424 1.45624,0.0912 3.12667,-3.58375 c 0,0 4.36332,2.76513 10.02445,2.35164 6.29899,0.11889 14.05753,-5.32023 14.05753,-5.32023 -14.23373,4.4327 -27.29855,1.97623 -28.56311,-13.934027 -0.10403,-1.7037 -0.10189,-2.480325 0.59488,-4.437799 0.72679,-2.152002 0.2502,-2.097923 0.2502,-2.097923 z"
       id="path49-6-8"
       inkscape:connector-curvature="0"
       sodipodi:nodetypes="czccccccccc" />
    <path
       style="fill:#000000;stroke-width:0.13278183"
       d="m 261.31485,67.13458 v -1.8408 l -0.82989,-0.17105 c -1.61664,-0.33321 -4.50502,-1.34753 -6.07474,-2.13328 -3.42567,-1.71479 -6.46753,-4.68591 -7.90104,-7.71731 -0.53569,-1.13279 -1.28447,-3.9551 -1.58271,-5.96551 -0.50254,-3.38764 0.0521,-8.91364 1.10107,-10.96974 0.92644,-1.81597 5.65786,-6.65072 6.37277,-6.51195 0.41013,0.0796 0.26765,0.38464 -0.67963,1.45501 -1.29876,1.46751 -1.7501,2.30028 -2.15278,3.97208 -0.99993,4.15139 -1.1258,8.90779 -0.32649,12.33721 0.31872,1.36745 1.32218,3.47247 2.21539,4.64736 1.98621,2.61257 5.41005,5.06214 8.69621,6.22167 l 1.16184,0.40996 V 46.40929 31.95035 l -0.36515,-0.0719 c -1.70986,-0.3368 -2.04971,-0.37585 -2.17561,-0.24994 -0.0917,0.0917 -0.0423,1.81602 0.15385,5.36327 0.17142,3.10069 0.25319,5.68115 0.20094,6.34149 -0.12499,1.57983 -0.68143,4.64197 -0.99577,5.47988 -0.49073,1.3081 -4.81271,6.56874 -5.2567,6.39836 -0.32013,-0.12284 -0.22844,-0.33722 0.65954,-1.5421 0.46855,-0.63577 0.94711,-1.44258 1.06347,-1.79291 0.71837,-2.16279 0.83435,-4.81531 0.56053,-12.81895 -0.11197,-3.2729 -0.18213,-6.02148 -0.15592,-6.10796 0.0262,-0.0865 0.0809,-0.52312 0.12146,-0.97032 l 0.0738,-0.81309 -1.95474,-0.1824 c -2.44424,-0.22807 -6.65415,-0.22724 -8.0627,0.002 -2.39996,0.38991 -4.49168,1.32637 -5.4775,2.45228 -0.79703,0.91029 -1.13046,1.75205 -1.21651,3.07119 -0.0662,1.01548 -0.11412,1.20055 -0.32074,1.23999 -0.69651,0.13294 -1.15134,-0.34719 -1.15134,-1.21539 0,-0.56223 0.77958,-2.15519 1.34572,-2.7498 1.14923,-1.20701 5.08494,-4.1483 6.5606,-4.90296 2.67664,-1.36885 4.83703,-1.68374 8.69141,-1.26682 0.98591,0.10664 2.1409,0.19508 2.56664,0.19653 l 0.77408,0.003 1.21452,-1.06225 c 0.66799,-0.58424 1.32237,-1.06226 1.45418,-1.06226 0.42746,0 0.42282,0.39149 -0.01,0.83864 -0.35892,0.37086 -0.90805,1.39184 -0.79556,1.47916 0.0701,0.0544 1.9361,0.33784 2.22425,0.33784 0.2543,0 0.27319,-0.078 0.27319,-1.12865 v -1.12947 h 0.39834 0.39835 v 1.1992 c 0,0.8401 0.0497,1.21646 0.16597,1.25684 0.0913,0.0317 1.38824,0.21029 2.8821,0.39688 3.39496,0.42402 7.00989,0.67152 7.98832,0.54691 0.71878,-0.0915 0.76582,-0.12261 1.2986,-0.85804 0.63906,-0.88214 1.30234,-1.35684 1.48734,-1.06447 0.0635,0.10035 0.13169,0.22827 0.15154,0.28427 0.0198,0.056 0.27247,-0.0187 0.56136,-0.16598 0.6251,-0.31869 0.78283,-0.33058 0.99495,-0.075 0.24581,0.29618 0.0521,0.67043 -0.55503,1.07219 l -0.55185,0.36519 0.32372,0.26648 c 0.58663,0.4829 1.91051,1.02098 2.72019,1.10561 0.54493,0.057 1.06053,0.0148 1.64202,-0.13413 0.46621,-0.11943 0.88355,-0.17973 0.92743,-0.134 0.16518,0.17217 -2.13131,2.15651 -3.06134,2.64522 -1.76696,0.92851 -3.57627,0.75463 -4.79137,-0.46047 -0.34972,-0.34972 -0.63193,-0.7555 -0.63193,-0.90863 0,-0.15218 -0.0512,-0.30834 -0.1138,-0.34702 -0.0626,-0.0387 -0.63757,0.14322 -1.27776,0.40422 -1.5758,0.64244 -3.26952,0.97439 -4.98197,0.97639 -1.31885,0.001 -3.8029,-0.17367 -4.74695,-0.33485 l -0.43154,-0.0737 v 14.53184 14.53183 l 1.16184,0.21278 c 2.88328,0.52804 4.12991,0.42784 6.2824,-0.50495 0.57038,-0.24718 1.06988,-0.41659 1.11,-0.37647 0.14912,0.14913 -3.31201,3.75086 -4.0624,4.22744 -1.0875,0.69067 -3.31503,1.11901 -4.19308,0.80631 l -0.29876,-0.1064 v 1.8015 1.80151 h -0.39839 -0.39835 z"
       id="path49"
       inkscape:connector-curvature="0" />
    <path
       style="fill:#000000;stroke-width:0.13278183"
       d="m 427.57236,67.01686 c -0.15419,-0.12781 -0.68363,-0.79743 -1.17656,-1.48805 -0.55755,-0.78118 -1.29761,-1.60138 -1.95846,-2.17054 -0.58424,-0.50319 -1.08442,-0.97559 -1.11151,-1.04979 -0.0271,-0.0742 0.18205,-0.59124 0.46474,-1.14899 l 0.51398,-1.01409 V 45.32097 c 0,-14.63648 -0.003,-14.8282 -0.26556,-15.12269 -0.33187,-0.37273 -1.21266,-0.78511 -1.68513,-0.78897 -0.39714,-0.003 -0.62768,-0.24385 -0.3802,-0.39681 0.0878,-0.0543 0.63527,-0.1659 1.21666,-0.24812 1.40103,-0.19813 2.60251,-0.69681 5.51099,-2.28736 1.97963,-1.0826 3.90418,-1.98355 4.23709,-1.98355 0.0349,0 0.0634,0.80665 0.0634,1.79255 0,1.4428 -0.0361,1.79256 -0.18477,1.79256 -0.10164,0 -0.22111,-0.14476 -0.26553,-0.3217 -0.0444,-0.17693 -0.27113,-0.51208 -0.50383,-0.74478 -0.37078,-0.37078 -0.49089,-0.41545 -0.97148,-0.36128 -1.13806,0.12828 -1.82438,1.00426 -2.13002,2.71863 -0.2406,1.34965 -0.2824,29.12066 -0.0451,29.97925 0.20301,0.73455 1.19501,2.17421 2.06534,2.99733 0.7021,0.66401 0.74722,0.68484 1.31483,0.60704 0.7994,-0.10957 0.76533,0.083 -0.17569,0.99287 -1.07196,1.03651 -3.94295,3.30328 -4.18377,3.30328 -0.038,0 -0.19518,-0.10456 -0.34936,-0.23236 z"
       id="path47"
       inkscape:connector-curvature="0" />
    <path
       style="fill:#000000;stroke-width:0.13278183"
       d="m 365.68463,66.15639 c -1.35748,-0.68544 -2.43069,-1.78202 -3.11591,-3.18373 l -0.57684,-1.18001 -0.91048,1.00693 -0.91047,1.00693 -0.23808,-0.29213 c -0.26409,-0.32406 -0.37012,-0.1665 1.33102,-1.97796 l 0.56412,-0.60071 0.0261,-6.13964 0.0261,-6.13963 1.66825,-1.62957 c 0.91753,-0.89627 2.26577,-2.14277 2.99607,-2.77001 2.11022,-1.81243 3.99147,-3.16499 3.3839,-2.43292 -0.14201,0.17113 0.12334,0.49796 1.7549,2.16141 1.05722,1.07788 2.09388,2.21919 2.30368,2.53623 l 0.38147,0.57643 1.21583,-1.30802 c 1.07212,-1.15342 1.24143,-1.28676 1.43249,-1.1282 0.11916,0.0989 0.21666,0.24121 0.21666,0.31625 0,0.075 -0.53776,0.71923 -1.19503,1.43153 -0.65727,0.71229 -1.19504,1.36831 -1.19504,1.45781 0,0.0895 0.14611,0.56779 0.32469,1.06285 0.41841,1.15993 0.73757,3.32518 0.73757,5.00387 0,1.84241 -0.35941,2.83995 -1.80977,5.02318 -1.56481,2.35548 -4.76424,6.00803 -6.16055,7.03302 -0.89777,0.65902 -1.22637,0.68327 -2.25063,0.16609 z"
       id="path45"
       inkscape:connector-curvature="0" />
    <path
       style="fill:#ffffff;stroke-width:0.13278183"
       d="m 370.28038,62.62162 c 1.46417,-1.06064 2.22266,-2.76431 2.39435,-5.37807 0.0917,-1.39616 -0.11214,-3.35571 -0.48455,-4.65801 -0.43005,-1.5038 -0.13512,-1.67891 -3.78372,2.24662 l -3.29192,3.5418 0.14791,0.49369 c 0.22016,0.73481 0.87974,1.65658 1.74699,2.44139 0.75535,0.68355 2.30401,1.69116 2.59925,1.69116 0.082,0 0.38426,-0.17036 0.67169,-0.37858 z"
       id="path43"
       inkscape:connector-curvature="0" />
    <path
       style="fill:#ffffff;stroke-width:0.13278183"
       d="m 368.13447,53.96916 3.14361,-3.4542 -0.48264,-0.65749 c -0.26546,-0.36162 -1.35718,-1.49868 -2.42605,-2.5268 -2.10003,-2.01997 -2.28716,-2.11454 -2.71847,-1.37385 -0.53851,0.92478 -0.65543,2.02474 -0.72841,6.85238 -0.0384,2.53779 -0.0387,4.61416 -6.6e-4,4.61416 0.038,0 1.48367,-1.55439 3.21266,-3.4542 z"
       id="path41"
       inkscape:connector-curvature="0" />
    <path
       style="fill:#000000;stroke-width:0.13278183"
       d="m 384.73339,66.34007 c -0.79342,-0.48386 -2.39645,-2.50411 -2.84368,-3.58381 -0.19345,-0.46705 -0.45931,-0.60532 -0.80653,-0.41949 -0.37396,0.20014 -0.57021,0.16243 -0.47301,-0.0909 0.0471,-0.12276 0.26211,-1.09373 0.47779,-2.15771 l 0.39214,-1.93452 0.001,-8.57704 c 10e-4,-8.35887 -0.005,-8.58305 -0.25981,-8.81322 -0.24188,-0.21889 -0.38726,-0.22449 -1.98674,-0.0764 -1.79315,0.16598 -2.33756,0.11605 -2.21507,-0.20317 0.0391,-0.10178 0.45226,-0.70884 0.9182,-1.34901 0.46596,-0.64018 0.9591,-1.35815 1.09587,-1.5955 0.13677,-0.23735 0.31473,-0.43154 0.39546,-0.43154 0.44207,0 3.24579,-1.60073 4.64249,-2.65055 0.87636,-0.65871 1.66807,-1.19821 1.75936,-1.19889 0.12435,-9.3e-4 0.16598,0.4327 0.16598,1.7291 0,1.52377 0.0277,1.7415 0.23237,1.82388 0.1278,0.0514 1.14358,0.0944 2.25729,0.0954 1.76848,0.002 2.02492,0.0288 2.02492,0.21472 0,0.22191 -2.19378,2.42022 -2.83356,2.83942 -0.20201,0.13236 -0.70768,0.30874 -1.12374,0.39197 l -0.75646,0.15133 -0.0909,3.84544 c -0.18742,7.92759 -0.18664,13.89572 0.002,14.54377 0.41975,1.44278 3.09249,4.23964 4.05149,4.23964 0.51524,0 0.25149,0.34891 -1.2028,1.59122 -2.17294,1.85621 -2.91549,2.16997 -3.82412,1.61586 z"
       id="path39"
       inkscape:connector-curvature="0" />
    <path
       style="fill:#000000;stroke-width:0.13278183"
       d="m 397.87879,66.34007 c -0.79342,-0.48386 -2.39645,-2.50411 -2.84368,-3.58381 -0.19345,-0.46705 -0.45931,-0.60532 -0.80653,-0.41949 -0.37395,0.20014 -0.57021,0.16243 -0.47301,-0.0909 0.0471,-0.12276 0.26211,-1.09373 0.47779,-2.15771 l 0.39214,-1.93452 0.001,-8.57704 c 10e-4,-8.35887 -0.005,-8.58305 -0.25981,-8.81322 -0.24188,-0.21889 -0.38726,-0.22449 -1.98674,-0.0764 -1.79315,0.16598 -2.33756,0.11605 -2.21506,-0.20317 0.0391,-0.10178 0.45225,-0.70884 0.9182,-1.34901 0.46595,-0.64018 0.95909,-1.35815 1.09586,-1.5955 0.13678,-0.23735 0.31473,-0.43154 0.39546,-0.43154 0.44207,0 3.24579,-1.60073 4.64249,-2.65055 0.87636,-0.65871 1.66807,-1.19821 1.75936,-1.19889 0.12435,-9.3e-4 0.16598,0.4327 0.16598,1.7291 0,1.52377 0.0277,1.7415 0.23237,1.82388 0.1278,0.0514 1.14358,0.0944 2.25729,0.0954 1.76848,0.002 2.02492,0.0288 2.02492,0.21472 0,0.22191 -2.19378,2.42022 -2.83356,2.83942 -0.202,0.13236 -0.70768,0.30874 -1.12374,0.39197 l -0.75645,0.15133 -0.0909,3.84544 c -0.18742,7.92759 -0.18663,13.89572 0.002,14.54377 0.41975,1.44278 3.09249,4.23964 4.0515,4.23964 0.51523,0 0.25148,0.34891 -1.20281,1.59122 -2.17293,1.85621 -2.91549,2.16997 -3.82412,1.61586 z"
       id="path37"
       inkscape:connector-curvature="0" />
    <path
       style="fill:#000000;stroke-width:0.13278183"
       d="m 278.67477,66.04772 c -0.62287,-0.41257 -2.00369,-1.99806 -2.70002,-3.10022 -0.30243,-0.47869 -0.4631,-0.61078 -0.74317,-0.61097 -0.19652,-1.3e-4 -0.38734,-0.0488 -0.42405,-0.10823 -0.0367,-0.0594 0.0766,-0.50282 0.25173,-0.98538 0.52011,-1.4329 0.60735,-3.05101 0.58399,-10.83215 l -0.0217,-7.21177 0.38199,-0.40271 c 0.2101,-0.22149 1.00939,-0.85867 1.7762,-1.41595 0.76682,-0.55727 2.07553,-1.59721 2.90824,-2.31096 1.00314,-0.85983 1.62143,-1.29773 1.83233,-1.29773 0.18004,0 0.51308,0.18917 0.76669,0.43547 0.98502,0.95663 3.59,2.21183 4.6011,2.21702 0.87737,0.005 0.94545,0.13889 0.78406,1.54762 -0.0748,0.65256 -0.13517,4.31509 -0.1355,8.21499 -5.3e-4,6.82369 0.007,7.05078 0.26719,7.47665 l 0.26778,0.43921 -2.22681,2.26348 c -2.9388,2.98719 -5.59583,5.33742 -6.63521,5.86908 -0.59527,0.30448 -0.83672,0.275 -1.53489,-0.18745 z"
       id="path35"
       inkscape:connector-curvature="0" />
    <path
       style="fill:#ffffff;stroke-width:0.13278183"
       d="m 284.09201,62.25188 c 0.63703,-0.68737 0.64512,-0.80005 0.69004,-9.60866 l 0.0423,-8.29887 -1.56375,-0.75119 c -0.86006,-0.41316 -2.06745,-1.08536 -2.68309,-1.4938 -0.61564,-0.40843 -1.13847,-0.7426 -1.16184,-0.7426 -0.0234,0 -0.0425,3.69206 -0.0425,8.20458 0,8.71642 0.0171,8.98613 0.64965,10.22295 0.38604,0.75486 1.26258,1.68025 2.15782,2.27807 0.96299,0.64306 1.44659,0.69101 1.91136,0.18952 z"
       id="path33"
       inkscape:connector-curvature="0" />
    <path
       style="fill:#000000;stroke-width:0.13278183"
       d="m 410.29607,65.56423 c -1.88542,-1.66588 -2.86246,-2.63217 -3.3744,-3.33728 -0.52688,-0.72567 -0.6023,-0.75264 -1.32702,-0.47453 -0.29553,0.1134 -0.27551,-0.30549 0.0595,-1.24519 0.67992,-1.90717 0.69453,-2.08344 0.75344,-9.09119 l 0.0555,-6.60483 -0.36228,-0.66564 c -0.19925,-0.36609 -0.33769,-0.68537 -0.30763,-0.7095 0.0301,-0.0241 1.17529,-0.55887 2.54495,-1.18831 1.98153,-0.91063 2.8282,-1.38722 4.14431,-2.3328 3.2388,-2.32701 4.00433,-2.63621 4.82241,-1.94784 0.34551,0.29072 0.52641,0.66777 0.97834,2.03914 0.49445,1.50043 0.55568,1.82611 0.56586,3.01028 0.0111,1.30494 0.002,1.34728 -0.55102,2.45761 -0.72507,1.45647 -1.48616,2.39917 -4.18378,5.18201 -1.78104,1.83732 -2.26349,2.2654 -2.51326,2.23002 -0.23953,-0.0339 -0.31837,-0.13989 -0.35035,-0.47084 -0.0362,-0.37506 0.0277,-0.47205 0.52503,-0.79669 1.43017,-0.93349 2.40764,-2.295 2.7439,-3.82197 0.42771,-1.94231 0.2765,-3.37521 -0.5417,-5.13298 -0.8094,-1.7389 -1.60525,-2.15222 -2.4526,-1.27374 -0.7655,0.79362 -0.75345,0.67918 -0.83562,7.93371 -0.0558,4.92338 -0.12267,6.88393 -0.25167,7.37693 -0.15283,0.58403 -0.14691,0.77052 0.0455,1.43245 0.17938,0.61709 0.39578,0.94478 1.14422,1.73269 0.50765,0.53442 1.43911,1.3388 2.06992,1.78751 0.92777,0.65993 1.24478,0.81583 1.65898,0.81583 0.77608,0 1.23042,-0.49251 1.82649,-1.97994 0.3268,-0.8155 0.58983,-1.28232 0.75711,-1.34374 0.37767,-0.13866 0.83948,0.0819 0.98768,0.47165 0.31164,0.81967 -0.79308,2.09425 -3.387,3.9078 -0.87636,0.61271 -2.17216,1.52209 -2.87957,2.02085 -0.70741,0.49876 -1.30493,0.90494 -1.32782,0.90263 -0.0229,-0.002 -0.48976,-0.40016 -1.03749,-0.8841 z"
       id="path31"
       inkscape:connector-curvature="0" />
    <path
       style="fill:#000000;stroke-width:0.13278183"
       d="m 315.09586,65.83831 c -0.49117,-0.41329 -0.68665,-0.78083 -1.79529,-3.37549 -0.95401,-2.23278 -1.80043,-3.63322 -2.53374,-4.1922 -0.40708,-0.3103 -0.62279,-0.37873 -1.14256,-0.36246 -0.35241,0.011 -0.64074,-0.0273 -0.64074,-0.0851 0,-0.21311 2.30928,-2.28298 2.96949,-2.66164 0.87179,-0.50002 1.42147,-0.50015 2.29251,-5.3e-4 0.93349,0.5354 1.42335,1.26224 2.72266,4.03975 1.33524,2.8543 1.89993,3.59442 2.74246,3.59442 0.72068,0 1.00212,-0.28527 1.34447,-1.36275 0.72459,-2.28052 0.72326,-5.32645 -0.004,-8.42451 -0.23328,-0.99417 -0.37206,-1.29039 -0.95866,-2.04605 -0.37724,-0.48598 -0.78437,-0.94463 -0.90473,-1.01922 -0.17497,-0.10844 -0.51471,0.0852 -1.6948,0.96585 -1.80836,1.34952 -2.28995,1.60209 -3.05485,1.60209 -0.55838,0 -0.65008,-0.0545 -1.42013,-0.8437 -0.92694,-0.95 -1.87596,-2.71903 -2.25424,-4.20201 -0.18588,-0.72868 -0.19587,-0.99518 -0.0642,-1.71136 0.2945,-1.60161 0.43898,-1.76088 5.25471,-5.79271 1.02242,-0.85599 2.11602,-1.68224 2.43022,-1.83612 l 0.57128,-0.27978 1.42045,0.74838 c 2.31645,1.22044 3.08237,1.36259 4.87349,0.9045 0.57147,-0.14616 1.06261,-0.24219 1.09141,-0.21339 0.0288,0.0288 -0.75305,0.68704 -1.73744,1.46277 -3.44918,2.71803 -4.76083,2.91957 -7.79493,1.1977 -0.69851,-0.3964 -1.39626,-0.72074 -1.55055,-0.72074 -0.85735,0 -1.08691,1.52861 -0.48238,3.21205 0.78758,2.19318 1.79705,3.81613 2.62202,4.21549 1.05529,0.51086 1.53397,0.40412 3.53575,-0.78845 1.02705,-0.61187 1.9322,-1.06225 2.13484,-1.06225 0.72679,0 1.56794,1.36591 2.14428,3.48203 0.26131,0.95943 0.29801,1.40237 0.28909,3.48902 -0.011,2.5695 -0.17022,3.64397 -0.75428,5.08997 -0.37338,0.92438 -0.75458,1.42643 -1.48495,1.9557 -0.28921,0.20958 -0.9166,0.74375 -1.39421,1.18706 -1.07195,0.99495 -3.50009,2.89596 -4.64006,3.63271 -1.02004,0.65925 -1.53093,0.7074 -2.13275,0.201 z"
       id="path29"
       inkscape:connector-curvature="0" />
    <path
       style="fill:#000000;stroke-width:0.13278183"
       d="m 297.20002,65.66526 c -0.29529,-0.21391 -1.02172,-0.9876 -1.61429,-1.71933 -0.59257,-0.73172 -1.19277,-1.41121 -1.33378,-1.50997 -0.24928,-0.17461 -0.24281,-0.2125 0.23336,-1.36785 l 0.48974,-1.18828 0.0379,-6.52315 c 0.0352,-6.05879 0.0195,-6.60769 -0.22129,-7.71072 -0.51874,-2.37683 -1.56642,-3.89085 -2.6924,-3.89085 -0.54976,0 -0.55061,-8e-4 -0.30168,-0.27585 0.37886,-0.41864 3.87426,-3.03202 4.37418,-3.27041 0.55399,-0.26419 0.75418,-0.18456 1.24727,0.49613 0.40965,0.56551 0.58021,0.97885 1.07859,2.61393 0.1606,0.52691 0.35988,1.04892 0.44283,1.16003 0.12754,0.17083 0.61702,-0.15644 3.17061,-2.11985 1.66088,-1.27703 3.13334,-2.32187 3.27214,-2.32187 0.29453,0 0.41356,0.2475 0.41356,0.85995 0,0.77249 0.51807,2.18369 0.9912,2.69996 0.39789,0.43418 0.50387,0.4798 1.05848,0.45566 0.7213,-0.0314 0.85802,0.14875 0.55606,0.73267 -0.27498,0.53174 -1.3381,1.56057 -1.8767,1.81615 -0.7757,0.3681 -1.92154,0.41255 -2.62403,0.1018 -0.70467,-0.3117 -1.58406,-1.14351 -2.24234,-2.121 l -0.45545,-0.67631 -0.40956,0.25932 c -0.49107,0.31092 -1.05175,1.09 -1.34789,1.87292 -0.18815,0.49741 -0.22208,1.53032 -0.26143,7.96012 -0.0326,5.31733 -0.002,7.54892 0.10881,7.96062 0.20592,0.76475 1.81021,2.44599 2.54374,2.66576 0.27873,0.0835 0.50678,0.22569 0.50678,0.31595 0,0.23713 -2.71264,2.5219 -3.3747,2.84239 -0.75743,0.36667 -1.13554,0.34147 -1.76972,-0.11792 z"
       id="path27"
       inkscape:connector-curvature="0" />
    <path
       style="fill:#000000;stroke-width:0.13278183"
       d="m 333.70655,65.59836 c -0.22014,-0.25073 -0.76625,-1.05144 -1.21357,-1.77936 -0.57573,-0.93688 -0.90707,-1.34702 -1.13426,-1.40404 -0.31747,-0.0797 -0.31878,-0.0867 -0.1215,-0.64391 0.1097,-0.30985 0.31985,-1.72309 0.46701,-3.14055 0.2308,-2.22298 0.26072,-3.26319 0.2177,-7.56856 -0.0458,-4.58313 -0.0722,-5.06226 -0.32258,-5.85789 -0.37465,-1.19046 -0.75281,-1.89167 -1.24231,-2.30355 -0.47072,-0.39609 -0.44743,-0.39096 -1.02378,-0.22566 -0.25398,0.0728 -0.45905,0.0742 -0.50287,0.003 -0.17624,-0.28517 2.4623,-2.64079 4.203,-3.75233 l 0.74664,-0.47677 0.26742,0.29206 c 0.39889,0.43564 1.01051,1.61097 1.49938,2.8813 0.23889,0.62076 0.47577,1.17674 0.5264,1.23553 0.0719,0.0835 3.43717,-2.66405 5.13966,-4.19633 l 0.29532,-0.2658 0.56776,0.3729 c 1.0115,0.66435 2.54888,2.32377 3.1272,3.37545 l 0.54248,0.98649 1.03828,-0.99156 c 2.71529,-2.59308 4.23861,-3.83623 4.70083,-3.83623 0.13606,0 0.74194,0.46313 1.3464,1.02917 2.00995,1.8822 2.54213,2.28745 2.88583,2.19757 0.30594,-0.08 0.30943,-0.0696 0.2141,0.63646 -0.30941,2.29173 -0.36235,3.4192 -0.43127,9.18501 -0.0593,4.96174 -0.0385,6.47588 0.0954,6.9543 0.32904,1.17522 2.4205,3.93493 3.11402,4.10899 0.17925,0.045 0.52475,-0.0376 0.84879,-0.20293 0.52544,-0.26805 0.5465,-0.26915 0.5465,-0.0284 0,0.30802 -2.0648,2.1922 -3.30896,3.01951 -1.67428,1.11333 -2.23206,0.94579 -3.70346,-1.11236 -0.50687,-0.709 -1.25676,-1.60535 -1.66642,-1.9919 l -0.74485,-0.70281 0.3203,-1.23273 c 0.4692,-1.80588 0.60451,-3.74355 0.60389,-8.6481 -8e-4,-6.7393 -0.0812,-7.09042 -1.96005,-8.56302 -1.16079,-0.90981 -1.49831,-1.04265 -1.98658,-0.78187 -0.54952,0.2935 -1.44892,1.78763 -1.78863,2.97136 -0.2999,1.045 -0.30485,1.17117 -0.30485,7.76774 0,5.19696 0.0392,6.81616 0.1743,7.19745 0.11178,0.3155 0.55762,0.85256 1.24282,1.49716 l 1.06851,1.00517 -1.17643,1.16604 c -1.13655,1.12652 -2.67695,2.27958 -3.04533,2.27958 -0.25425,0 -0.57198,-0.37207 -1.86087,-2.17915 -0.82135,-1.15156 -1.11686,-1.66952 -1.06419,-1.86526 0.67794,-2.51959 0.67046,-2.41781 0.6742,-9.16739 l 0.004,-6.37352 -0.31703,-0.78684 c -0.2498,-0.61997 -0.55954,-1.02354 -1.4606,-1.90302 -1.78142,-1.73876 -1.63867,-1.69649 -2.52929,-0.74896 -1.52078,1.61797 -1.59692,2.0474 -1.59848,9.01565 -0.001,6.10254 0.0979,7.48283 0.61424,8.54592 0.40766,0.83926 1.03539,1.59066 1.46547,1.75417 0.16883,0.0642 0.30697,0.18481 0.30697,0.26803 0,0.41221 -3.33034,3.44037 -3.78368,3.44037 -0.0948,0 -0.35238,-0.20514 -0.57252,-0.45587 z"
       id="path25"
       inkscape:connector-curvature="0" />
    <path
       style="fill:#000000;stroke-width:0.13278183"
       d="m 286.27784,33.26568 c -0.75807,-0.23142 -1.48826,-0.713 -1.86073,-1.22718 -0.5129,-0.70803 -0.5384,-1.5916 -0.0747,-2.58755 0.34603,-0.74318 1.49993,-2.03628 1.81707,-2.03628 0.12154,0 0.25982,0.23847 0.36387,0.62746 0.45224,1.69091 3.01942,2.8042 5.14162,2.22974 0.47587,-0.12881 0.89506,-0.20436 0.93152,-0.1679 0.1113,0.1113 -1.69004,1.81181 -2.46743,2.32931 -1.25863,0.83787 -2.76608,1.16369 -3.85124,0.8324 z"
       id="path21"
       inkscape:connector-curvature="0" />
    <path
       style="fill:#ffffff;stroke:#000000;stroke-width:0.5;stroke-miterlimit:4;stroke-dasharray:none;stroke-opacity:1"
       d="M 322.71931,101.77204 V 87.313102 l -0.36515,-0.0719 c -1.70986,-0.3368 -2.04971,-0.37585 -2.17562,-0.24994 -0.0917,0.0917 0.0522,1.86327 0.24835,5.41052 0.17142,3.100691 0.11145,5.208671 0.0592,5.869011 -0.12499,1.57983 -0.49244,3.035577 -0.80678,3.873487 -0.49074,1.3081 -5.04895,6.66323 -5.49294,6.49286 -0.32013,-0.12285 -0.22844,-0.33723 0.65954,-1.54211 0.46855,-0.63577 0.94711,-1.44258 1.06347,-1.79291 0.71837,-2.16279 0.92885,-2.87818 0.65503,-10.881817 -0.11197,-3.272901 -0.18214,-6.021481 -0.15593,-6.107961 0.0262,-0.0865 0.0809,-0.52312 0.12147,-0.97032 l 0.0738,-0.81309 -1.95474,-0.1824 c -2.44424,-0.22807 -6.65416,-0.22724 -8.06271,0.002 -2.39996,0.38991 -3.48941,0.992283 -4.47524,2.118193 -0.71337,0.898339 -1.79738,2.455532 -2.25218,3.772773 -0.45479,1.317245 -0.30348,1.220615 -0.75505,1.306805 -0.45156,0.0862 -0.68361,-0.7815 -0.68361,-1.649701 0,-0.56223 0.93178,-2.57568 1.78002,-3.61843 1.19736,-1.47192 3.01361,-2.74513 4.48926,-3.49979 2.67665,-1.36885 6.47407,-2.21828 10.32845,-1.80136 0.9859,0.10664 2.14089,0.19508 2.56664,0.19653 l 0.77408,0.003 1.21452,-1.06225 c 0.66798,-0.58424 1.32236,-1.06226 1.45418,-1.06226 0.42745,0 0.42281,0.39149 -0.01,0.83864 -0.35892,0.37086 -0.90806,1.39184 -0.79557,1.47916 0.0701,0.0544 1.9361,0.33784 2.22426,0.33784 0.25429,0 0.27318,-0.078 0.27318,-1.12865 v -1.12947 h 0.39835 0.39834 v 1.1992 c 0,0.8401 0.0497,1.21646 0.16598,1.25684 0.0913,0.0317 1.38823,0.21029 2.8821,0.39688 3.39496,0.42402 5.48846,0.85314 8.15368,0.31067 1.20328,-0.2449 2.43944,-1.07653 3.33348,-1.56798 0.6251,-0.31869 0.83294,-0.31388 1.04507,-0.0583 0.0892,0.80732 -0.38274,1.23601 -0.98996,1.63784 -2.07152,1.37086 -2.41384,1.4113 -4.42988,2.22012 -1.5758,0.64244 -3.26952,0.97439 -4.98198,0.97639 -1.31885,10e-4 -3.80289,-0.17367 -4.74695,-0.33485 l -0.43154,-0.0737 v 14.531838 l -0.0334,16.87172 h -0.39839 -0.39835 c 1e-5,-7.52201 0.0334,-9.52218 0.0334,-17.04419 z"
       id="path49-6"
       inkscape:connector-curvature="0"
       sodipodi:nodetypes="cccccssccsscccccczzsacccccsccsscccsccaccccccccccccc" />
    <rect
       style="fill:#ffffff;stroke:#000000;stroke-width:0.39575574;stroke-miterlimit:4;stroke-dasharray:none;stroke-opacity:1"
       id="rect952"
       width="2.2400749"
       height="61.836933"
       x="443.89038"
       y="-149.6225"
       transform="matrix(0.69312044,0.72082179,-0.70821049,0.70600134,0,0)" />
    <path
       style="fill:#ffffff;stroke:#000000;stroke-width:0.36257604;stroke-miterlimit:4;stroke-dasharray:none;stroke-opacity:1"
       d="m 359.15978,181.31372 a 18.227001,18.021433 0 0 1 -18.227,18.02143 18.227001,18.021433 0 0 1 -18.22701,-18.02143 18.227001,18.021433 0 0 1 18.22701,-18.02143 18.227001,18.021433 0 0 1 18.227,18.02143 z"
       id="path1051"
       inkscape:connector-curvature="0" />
    <rect
       style="fill:#ffffff;stroke:#000000;stroke-width:0.36236227;stroke-miterlimit:4;stroke-dasharray:none;stroke-opacity:1"
       id="rect952-9"
       width="4.0087399"
       height="56.336136"
       x="378.02762"
       y="-105.2799"
       transform="matrix(0.77151071,0.63621633,-0.62220572,0.78285378,0,0)" />
    <path
       style="fill:#ffffff;stroke:#000000;stroke-width:0.5;stroke-miterlimit:4;stroke-dasharray:none;stroke-opacity:1"
       d="m 281.12965,79.203175 -2.58996,0.28323 -1.92731,1.17385 c -2.66383,-1.74584 -5.24897,-2.63437 -8.3245,-2.63618 -8.53748,8e-5 -15.36332,6.74786 -15.36342,15.189068 0.007,4.29425 1.33128,8.337117 4.64398,11.446507 l -2.33613,2.6866 2.36377,-0.2006 1.6339,-1.25191 c 2.63976,1.44012 4.85869,2.26459 8.86762,2.12826 8.53776,0.061 14.73946,-6.31407 14.73937,-14.781217 -0.006,-4.134148 -1.46254,-8.100278 -4.447,-11.087948 z m -4.7494,5.07457 c 2.29156,2.2891 3.75624,5.41883 3.67209,9.768878 -0.10299,5.32324 -5.31732,11.878757 -12.038,11.360547 -2.24415,-0.006 -5.05008,-0.78173 -6.97137,-1.92833 z M 259.3576,102.24299 c -2.44448,-2.304227 -3.71247,-5.731637 -3.71797,-9.070927 1.2e-4,-6.757138 5.54046,-12.234828 12.37471,-12.234718 2.36343,0.004 4.80691,0.79731 6.7953,2.06047 z"
       id="path915-4-1-4-0"
       inkscape:connector-curvature="0"
       sodipodi:nodetypes="ccccccccccccccscccccccc" />
    <path
       style="fill:#ffffff;stroke:#000000;stroke-width:0.5;stroke-miterlimit:4;stroke-dasharray:none;stroke-opacity:1"
       d="M 269.75545,102.33716 V 87.878225 l -0.36515,-0.0719 c -1.70986,-0.3368 -2.04971,-0.37585 -2.17561,-0.24994 -0.0917,0.0917 0.0522,1.86327 0.24834,5.410518 0.17142,3.10069 0.20595,7.145797 0.1537,7.806137 -0.12499,1.57983 -0.49244,3.03558 -0.80678,3.87349 -0.49074,1.3081 -5.04895,6.66323 -5.49294,6.49286 -0.32013,-0.12285 -0.22845,-0.33723 0.65953,-1.54211 0.46856,-0.63577 0.94712,-1.44258 1.06348,-1.79291 0.71836,-2.16279 0.83435,-4.81531 0.56053,-12.818947 -0.11197,-3.272898 -0.18214,-6.021478 -0.15592,-6.107958 0.0262,-0.0865 0.0809,-0.52312 0.12146,-0.97032 l 0.0738,-0.81309 -1.95474,-0.1824 c -2.44424,-0.22807 -6.65415,-0.22724 -8.0627,0.002 -2.39996,0.38991 -4.49168,1.32637 -5.4775,2.45228 -0.79703,0.91029 -1.13046,1.75205 -1.21651,3.07119 -0.0662,1.015478 -0.11412,1.200548 -0.32074,1.239988 -0.69651,0.13294 -1.15134,-0.34719 -1.15134,-1.215388 0,-0.56223 0.93179,-2.57568 1.78003,-3.61843 1.19736,-1.47193 3.0136,-2.74514 4.48926,-3.4998 2.67664,-1.36885 6.47406,-2.21828 10.32844,-1.80136 0.98591,0.10664 2.14089,0.19508 2.56664,0.19653 l 0.77408,0.003 1.21452,-1.06225 c 0.66799,-0.58424 1.32237,-1.06226 1.45418,-1.06226 0.42746,0 0.42282,0.39149 -0.01,0.83864 -0.35892,0.37086 -0.90805,1.39184 -0.79556,1.47916 0.0701,0.0544 1.9361,0.33784 2.22425,0.33784 0.2543,0 0.27318,-0.078 0.27318,-1.12865 v -1.12947 h 0.39835 0.39835 v 1.1992 c 0,0.8401 0.0497,1.21646 0.16597,1.25684 0.0913,0.0317 1.38824,0.21029 2.8821,0.39688 3.39497,0.42402 5.48846,0.85314 8.15368,0.31067 1.20328,-0.2449 2.43944,-1.07653 3.33348,-1.56798 0.62511,-0.31869 0.83295,-0.31388 1.04507,-0.0583 0.0892,0.80732 -0.38274,1.23601 -0.98996,1.63784 -2.07152,1.37086 -2.41384,1.4113 -4.42988,2.22012 -1.5758,0.64244 -3.26952,0.97439 -4.98197,0.97639 -1.31885,10e-4 -3.8029,-0.17367 -4.74695,-0.33485 l -0.43154,-0.0737 v 14.531835 10.15657 h -0.39839 -0.39835 c 0,-7.52201 0,-2.80703 0,-10.32904 z"
       id="path49-6-0"
       inkscape:connector-curvature="0"
       sodipodi:nodetypes="cccccssccssccccccccsacccccsccsscccsccacccccccccccc" />
    <path
       style="fill:#ffffff;stroke:#000000;stroke-width:0.5;stroke-miterlimit:4;stroke-dasharray:none;stroke-opacity:1"
       d="m 358.58135,96.509833 c -0.12903,-0.25805 -3.29788,2.16261 -3.61118,5.678667 -0.31331,3.51607 -0.67104,10.23183 4.16413,15.88798 l -1.49981,5.36424 1.45624,0.0912 3.12667,-3.58375 c 0,0 4.36332,2.76513 10.02445,2.35164 6.29899,0.11889 14.05753,-5.32023 14.05753,-5.32023 -14.23373,4.4327 -27.29855,1.97623 -28.56311,-13.93403 -0.10403,-1.7037 -0.10189,-2.48032 0.59488,-4.437797 0.72679,-2.152 0.2502,-2.09792 0.2502,-2.09792 z"
       id="path49-6-8-6"
       inkscape:connector-curvature="0"
       sodipodi:nodetypes="czccccccccc" />
    <path
       id="path49-6-6"
       style="fill:#ffffff;stroke:#000000;stroke-width:0.5;stroke-miterlimit:4;stroke-dasharray:none;stroke-opacity:1"
       d="M 376.93053,110.32196 V 95.863023 l -0.36515,-0.0719 c -1.70986,-0.3368 -2.04971,-0.37585 -2.17562,-0.24994 -0.0917,0.0917 0.0522,1.86327 0.24835,5.410517 0.17142,3.10069 0.11145,5.20867 0.0592,5.86901 -0.12499,1.57983 -0.49244,3.03558 -0.80678,3.87349 -0.49074,1.3081 -5.04895,6.66323 -5.49294,6.49286 -0.32013,-0.12285 -0.22844,-0.33723 0.65954,-1.54211 0.46855,-0.63577 0.94711,-1.44258 1.06347,-1.79291 0.71837,-2.16279 0.92885,-2.87818 0.65503,-10.88182 -0.11197,-3.272897 -0.18214,-6.021477 -0.15593,-6.107957 0.0262,-0.0865 0.0809,-0.52312 0.12147,-0.97032 l 0.0738,-0.81309 -1.95474,-0.1824 c -2.44424,-0.22807 -6.65416,-0.22724 -8.06271,0.002 -2.39996,0.38992 -3.48941,0.99229 -4.47524,2.1182 -0.71337,0.89834 -1.79738,2.45554 -2.25218,3.772777 -0.45479,1.31724 -0.30348,1.22061 -0.75505,1.3068 -0.45156,0.0862 -0.68361,-0.7815 -0.68361,-1.6497 0,-0.562227 0.93178,-2.575677 1.78002,-3.618427 1.19736,-1.47192 3.01361,-2.74513 4.48926,-3.49979 2.67665,-1.368849 6.47407,-2.218279 10.32845,-1.801359 0.9859,0.10664 2.14089,0.19508 2.56664,0.19653 l 0.77408,0.003 1.21452,-1.06225 c 0.66798,-0.58424 1.32236,-1.06226 1.45418,-1.06226 0.42745,0 0.42281,0.39149 -0.01,0.83864 -0.35892,0.37086 -0.90806,1.39184 -0.79557,1.47916 0.0701,0.0544 1.9361,0.33784 2.22426,0.33784 0.25429,0 0.27318,-0.078 0.27318,-1.12865 v -1.12947 h 0.39835 0.39834 v 1.1992 c 0,0.8401 0.0497,1.21646 0.16598,1.25684 0.0913,0.0317 1.38823,0.210289 2.8821,0.396879 3.39496,0.42402 5.48846,0.85314 8.15368,0.31067 1.20328,-0.2449 2.43944,-1.076529 3.33348,-1.567979 0.6251,-0.31869 0.83294,-0.31388 1.04507,-0.0583 0.0892,0.80732 -0.38274,1.236009 -0.98996,1.637839 -2.07152,1.37086 -2.41384,1.4113 -4.42988,2.22012 -1.5758,0.64244 -3.26952,0.97439 -4.98198,0.97639 -1.31885,10e-4 -3.80289,-0.17367 -4.74695,-0.33485 l -0.43154,-0.0737 v 14.531837 l -0.0334,16.87172 h -0.39839 -0.39835 c 10e-6,-7.52201 0.0334,-9.52218 0.0334,-17.04419 z m 9.9227,4.18918 c 0.0413,0.007 0.0913,0.008 0.14958,0.001 0.8126,-0.0824 4.04003,-4.59817 4.77436,-7.80635 0.73434,-3.20817 1.71401,-10.220937 -3.06854,-16.449993 l 2.81333,-6.305494 -2.86605,1.426815 -3.09293,2.735144 c 0,0 -4.44542,-3.155983 -10.43473,-3.033837 -6.63208,-0.474286 -15.11037,4.828293 -15.11037,4.828293 17.43984,-5.165985 36.18371,1.666013 27.32828,22.935822 -0.64554,1.19623 -0.78132,1.61376 -0.49291,1.66766 z"
       inkscape:connector-curvature="0" />
    <rect
       style="fill:#000000;stroke:#000000;stroke-width:0.5;stroke-miterlimit:4;stroke-dasharray:none;stroke-opacity:1"
       id="rect1163"
       width="77.775429"
       height="66.282845"
       x="243.48254"
       y="203.18839" />
    <path
       style="fill:#ffffff;stroke:none;stroke-width:0.52769071;stroke-miterlimit:4;stroke-dasharray:none;stroke-opacity:0.03517588"
       d="m 296.83543,241.48807 c 0.0413,0.007 0.0913,0.008 0.14958,0.001 7.73145,-7.35941 5.3788,-17.35931 0.44014,-21.63245 l 3.23855,-3.80142 c 0.12111,-0.72666 -4.41469,-0.43986 -5.55472,1.2374 -4.10271,-2.62386 -7.96793,-3.77296 -12.54704,-3.34144 -4.26666,0.40208 -10.77179,3.05542 -14.24565,7.69019 3.42133,-1.53957 4.24055,-1.97022 6.60641,-2.7225 19.61828,-6.23806 27.33528,8.02005 22.35554,20.53313 -0.64554,1.19622 -0.73122,1.98219 -0.44281,2.03609 z"
       id="path49-6-8-8-5"
       inkscape:connector-curvature="0"
       sodipodi:nodetypes="cccccscscc" />
    <path
       style="fill:#ffffff;stroke:none;stroke-width:0.5;stroke-miterlimit:4;stroke-dasharray:none;stroke-opacity:0.03517588"
       d="m 270.44922,224.41856 c -0.12903,-0.25805 -2.91949,1.51772 -3.34391,4.58933 -0.42442,3.07161 -0.23935,10.68905 4.59844,16.3557 l -2.54694,4.06999 c 2.18119,0.2685 4.199,-0.25389 5.82952,-1.98163 0.0359,-0.40812 4.73421,3.35659 12.11003,2.17412 9.11815,-1.43577 13.84888,-9.15985 12.64051,-10.32648 -8.53407,12.39693 -30.07803,8.10804 -30.27447,-9.05401 0.0646,-3.34042 0.50014,-3.54962 0.98682,-5.82702 z"
       id="path49-6-8-0"
       inkscape:connector-curvature="0"
       sodipodi:nodetypes="czccccccc" />
    <path
       style="fill:#ffffff;stroke:none;stroke-width:0.5;stroke-miterlimit:4;stroke-dasharray:none;stroke-opacity:0.03517588"
       d="m 286.99433,239.01224 v -14.45895 l -0.36515,-0.0719 c -1.70986,-0.3368 -2.04971,-0.37585 -2.17562,-0.24994 -0.0917,0.0917 0.0522,1.86327 0.24835,5.41052 0.17142,3.10069 0.11145,5.20867 0.0592,5.86901 -0.12499,1.57984 -0.22517,1.43197 -0.53951,2.26987 -0.49074,1.3081 -5.04895,6.66323 -5.49294,6.49286 -0.32013,-0.12284 -0.22844,-0.33723 0.65954,-1.5421 0.46855,-0.63577 0.94711,-1.44258 1.06347,-1.79292 0.71837,-2.16279 1.03956,-0.99108 0.76574,-8.99472 0.0327,-2.29 -0.26743,-4.58344 -0.0846,-6.7609 l 0.12391,-1.13047 -2.23822,-0.1824 c -2.44424,-0.22807 -4.77542,-1.03925 -7.09415,-0.54133 -1.442,0.30965 -2.86304,1.05445 -3.88465,2.11821 -1.17672,1.22529 -1.99675,4.49131 -2.25701,4.56947 -0.45156,0.0862 -0.78095,-0.46098 -0.87636,-0.85867 -0.45753,-1.90709 0.65462,-4.04248 1.87689,-5.57623 0.92662,-1.16275 2.39854,-1.8431 3.8032,-2.33048 2.76108,-0.95803 4.80251,-1.56256 8.70653,-1.03395 0.9859,0.10664 2.14089,0.19508 2.56664,0.19653 l 0.77408,0.003 1.21452,-1.06225 c 0.66798,-0.58424 1.32236,-1.06226 1.45418,-1.06226 0.42745,0 0.42281,0.39149 -0.01,0.83864 -0.35892,0.37086 -0.90806,1.39184 -0.79557,1.47916 0.0701,0.0544 1.9361,0.33784 2.22426,0.33784 0.25429,0 0.27318,-0.078 0.27318,-1.12865 v -1.12947 h 0.39835 0.39834 v 1.1992 c 0,0.8401 0.0497,1.21646 0.16598,1.25684 0.0913,0.0317 1.38823,0.21029 2.8821,0.39688 3.39496,0.42402 5.48846,0.85314 8.15368,0.31067 1.20328,-0.2449 2.43944,-1.07653 3.33348,-1.56798 0.6251,-0.31869 0.83294,-0.31388 1.04507,-0.0583 0.0892,0.80732 -0.38274,1.23601 -0.98996,1.63784 -2.07152,1.37086 -2.41384,1.4113 -4.42988,2.22013 -1.5758,0.64243 -3.26952,0.97438 -4.98198,0.97638 -1.31885,0.001 -3.80289,-0.17367 -4.74695,-0.33485 l -0.43154,-0.0737 v 14.53184 l 0.0611,12.00529 h -0.39839 -0.39835 c 10e-6,-7.52201 -0.0611,-4.65575 -0.0611,-12.17775 z"
       id="path49-6-82"
       inkscape:connector-curvature="0"
       sodipodi:nodetypes="cccccssccsccccaacaaaccccsccsscccsccaccccccccccccc" />
    <path
       style="fill:none;stroke:#fb0000;stroke-width:0.32628089;stroke-miterlimit:4;stroke-dasharray:none;stroke-opacity:1"
       d="m 378.76719,232.22757 a 20.490567,20.25947 0 0 1 -20.49057,20.25948 20.490567,20.25947 0 0 1 -20.49056,-20.25948 20.490567,20.25947 0 0 1 20.49056,-20.25947 20.490567,20.25947 0 0 1 20.49057,20.25947 z"
       id="path915-4-1"
       inkscape:connector-curvature="0" />
    <rect
       style="fill:#000000;stroke:#000000;stroke-width:0.5;stroke-miterlimit:4;stroke-dasharray:none;stroke-opacity:1"
       id="rect1163-8"
       width="77.775429"
       height="66.282845"
       x="-90.203461"
       y="243.01155" />
    <path
       style="fill:#ffffff;stroke:none;stroke-width:0.52769071;stroke-miterlimit:4;stroke-dasharray:none;stroke-opacity:0.03517588"
       d="m -36.850569,281.31124 c 0.0413,0.007 0.0913,0.008 0.14958,10e-4 7.73145,-7.35941 5.37879,-17.35931 0.44013,-21.63245 l 3.23856,-3.80142 c 0.12111,-0.72666 -4.41469,-0.43986 -5.55472,1.2374 -4.10272,-2.62386 -7.96793,-3.77296 -12.547044,-3.34144 -4.266658,0.40208 -10.771786,3.05542 -14.245646,7.69019 3.42133,-1.53957 4.240543,-1.97022 6.60641,-2.7225 19.61828,-6.23806 27.33527,8.02005 22.35554,20.53313 -0.64554,1.19622 -0.73123,1.98219 -0.44281,2.03609 z"
       id="path49-6-8-8-5-2"
       inkscape:connector-curvature="0"
       sodipodi:nodetypes="cccccscscc" />
    <path
       style="fill:#ffffff;stroke:none;stroke-width:0.5;stroke-miterlimit:4;stroke-dasharray:none;stroke-opacity:0.03517588"
       d="m -63.236784,264.24173 c -0.129024,-0.25805 -2.91949,1.51772 -3.34391,4.58933 -0.424421,3.07161 -0.239345,10.68905 4.598446,16.3557 l -2.54694,4.06999 c 2.181185,0.2685 4.198993,-0.25389 5.829514,-1.98163 0.03586,-0.40812 4.734216,3.35659 12.110025,2.17412 9.11816,-1.43577 13.84889,-9.15985 12.64051,-10.32648 -8.53406,12.39693 -30.07802,8.10804 -30.274459,-9.05401 0.06463,-3.34042 0.50014,-3.54962 0.986814,-5.82702 z"
       id="path49-6-8-0-8"
       inkscape:connector-curvature="0"
       sodipodi:nodetypes="czccccccc" />
    <path
       style="fill:#ffffff;stroke:none;stroke-width:0.5;stroke-miterlimit:4;stroke-dasharray:none;stroke-opacity:0.03517588"
       d="m -46.691669,278.83541 v -14.45895 l -0.36515,-0.0719 c -1.709862,-0.3368 -2.049712,-0.37585 -2.175622,-0.24994 -0.0917,0.0917 0.0522,1.86327 0.248351,5.41052 0.171419,3.10069 -0.02218,11.4895 -0.07444,12.14984 -0.124992,1.57984 -0.225171,1.43197 -0.539512,2.26987 -0.490738,1.3081 -5.048948,6.66323 -5.49294,6.49286 -0.32013,-0.12284 -0.228439,-0.33723 0.65954,-1.5421 0.46855,-0.63577 -0.65954,1.5421 1.063471,-1.79292 1.046055,-2.02471 1.173191,-7.27191 0.899371,-15.27555 0.03267,-2.29 -0.26743,-4.58344 -0.08457,-6.7609 l 0.123915,-1.13047 -2.238224,-0.1824 c -2.44424,-0.22807 -4.775412,-1.03925 -7.094144,-0.54133 -1.442005,0.30965 -2.863049,1.05445 -3.884651,2.11821 -1.176727,1.22529 -1.996749,4.49131 -2.257009,4.56947 -0.451566,0.0862 -0.780957,-0.46098 -0.876366,-0.85867 -0.457528,-1.90709 0.65462,-4.04248 1.876894,-5.57623 0.926616,-1.16275 2.398538,-1.8431 3.803195,-2.33048 2.761086,-0.95803 4.802513,-1.56256 8.70653,-1.03395 0.985901,0.10664 2.140889,0.19508 2.566641,0.19653 l 0.774081,0.003 1.214519,-1.06225 c 0.667981,-0.58424 1.322359,-1.06226 1.45418,-1.06226 0.42745,0 0.422809,0.39149 -0.01,0.83864 -0.35892,0.37086 -0.90806,1.39184 -0.79557,1.47916 0.0701,0.0544 1.936095,0.33784 2.224255,0.33784 0.25429,0 0.27318,-0.078 0.27318,-1.12865 v -1.12947 h 0.39835 0.39834 v 1.1992 c 0,0.8401 0.0497,1.21646 0.16598,1.25684 0.0913,0.0317 1.38823,0.21029 2.8821,0.39688 3.39496,0.42402 5.48846,0.85314 8.15368,0.31067 1.20328,-0.2449 2.43944,-1.07653 3.33348,-1.56798 0.62511,-0.31869 0.83294,-0.31388 1.04507,-0.0583 0.0892,0.80732 -0.38274,1.23601 -0.98996,1.63784 -2.07151,1.37086 -2.41384,1.4113 -4.42988,2.22013 -1.5758,0.64243 -3.26952,0.97438 -4.98198,0.97638 -1.31885,10e-4 -3.80289,-0.17367 -4.74695,-0.33485 l -0.43154,-0.0737 v 14.53184 l 0.0611,12.00529 h -0.39838 -0.39836 c 10e-6,-7.52201 -0.0611,-4.65575 -0.0611,-12.17775 z"
       id="path49-6-82-7"
       inkscape:connector-curvature="0"
       sodipodi:nodetypes="cccccssccsccccaacaaaccccsccsscccsccaccccccccccccc" />
    <rect
       style="fill:#ffffff;stroke:none;stroke-width:0.29204205;stroke-miterlimit:4;stroke-dasharray:none;stroke-opacity:1"
       id="rect1210"
       width="0.70764863"
       height="34.945488"
       x="288.32013"
       y="218.68976" />
    <rect
       style="fill:#000000;stroke:#000000;stroke-width:0.5;stroke-miterlimit:4;stroke-dasharray:none;stroke-opacity:1"
       id="rect1163-7"
       width="77.775429"
       height="66.282845"
       x="-90.203461"
       y="176.7287" />
    <path
       style="fill:#ffffff;stroke:none;stroke-width:0.52769071;stroke-miterlimit:4;stroke-dasharray:none;stroke-opacity:0.03517588"
       d="m -35.263068,215.02837 c 0.0413,0.007 0.0913,0.008 0.14958,0.001 7.731454,-7.35941 5.378799,-17.35931 0.440139,-21.63245 l 3.238553,-3.80142 c 0.12111,-0.72666 -4.414689,-0.43986 -5.554718,1.2374 -4.102716,-2.62386 -7.96793,-3.77296 -12.547044,-3.34144 -4.266658,0.40208 -10.805195,3.05542 -14.279055,7.6902 3.187469,-2.11891 5.232781,-2.77219 7.574279,-3.42073 18.869317,-5.22635 26.406578,8.75862 21.421081,21.23136 -0.645539,1.19621 -0.731227,1.98219 -0.442815,2.03608 z"
       id="path49-6-8-8-5-26"
       inkscape:connector-curvature="0"
       sodipodi:nodetypes="cccccscscc" />
    <path
       style="fill:#ffffff;stroke:none;stroke-width:0.5;stroke-miterlimit:4;stroke-dasharray:none;stroke-opacity:0.03517588"
       d="m -61.120112,197.95887 c -0.129024,-0.25805 -2.91949,1.51772 -3.34391,4.58933 -0.424421,3.0716 -0.239345,10.68905 4.598446,16.3557 l -2.54694,4.06999 c 2.181185,0.2685 4.198993,-0.2539 5.829514,-1.98164 0.03586,-0.40811 4.734216,3.3566 12.110029,2.17413 9.118156,-1.43577 13.848882,-9.15986 12.640509,-10.32649 -8.534064,12.39694 -30.078023,8.10804 -30.274462,-9.05401 0.06463,-3.34041 0.50014,-3.54961 0.986814,-5.82701 z"
       id="path49-6-8-0-9"
       inkscape:connector-curvature="0"
       sodipodi:nodetypes="czccccccc" />
    <path
       style="fill:#ffffff;stroke:none;stroke-width:0.5;stroke-miterlimit:4;stroke-dasharray:none;stroke-opacity:0.03517588"
       d="M -46.691667,212.55255 V 198.0936 l -0.365149,-0.0719 c -1.709861,-0.3368 -2.049711,-0.37585 -2.175621,-0.24994 -0.0917,0.0917 0.0522,1.86327 0.248351,5.41052 0.171419,3.10069 0.111451,5.20866 0.0592,5.86901 -0.124992,1.57984 -0.225171,1.43197 -0.539512,2.26986 -0.490738,1.3081 -5.048948,6.66324 -5.49294,6.49287 -0.32013,-0.12284 -0.228439,-0.33723 0.65954,-1.5421 0.46855,-0.63577 0.94711,-1.44258 1.063471,-1.79292 0.71837,-2.16279 1.039556,-0.99109 0.765736,-8.99472 0.03267,-2.29 -0.26743,-4.58344 -0.08457,-6.7609 l 0.123915,-1.13047 -2.238224,-0.1824 c -2.44424,-0.22807 -4.236184,-0.82872 -6.258926,-0.30747 -1.157087,0.29818 -2.245468,1.00038 -3.049434,1.88435 -1.143035,1.25678 -1.996749,4.49131 -2.257009,4.56947 -0.451566,0.0862 -0.780957,-0.46098 -0.876366,-0.85867 -0.457531,-1.90709 0.688255,-4.01627 1.876894,-5.57623 0.926679,-1.21617 2.368612,-2.03541 3.803195,-2.56434 2.214741,-0.81657 3.132078,-1.3287 7.036095,-0.80009 0.985901,0.10664 2.140889,0.19508 2.566641,0.19653 l 0.774081,0.003 1.214519,-1.06225 c 0.667981,-0.58424 1.322359,-1.06226 1.45418,-1.06226 0.42745,0 0.422809,0.39149 -0.01,0.83864 -0.35892,0.37086 -0.90806,1.39184 -0.79557,1.47916 0.0701,0.0544 1.936099,0.33784 2.224259,0.33784 0.254289,0 0.27318,-0.078 0.27318,-1.12865 v -1.12947 h 0.398349 0.398341 v 1.1992 c 0,0.8401 0.0497,1.21646 0.165981,1.25684 0.0913,0.0317 1.388229,0.21029 2.882098,0.39688 3.394961,0.42402 5.488461,0.85314 8.15368,0.31067 1.203281,-0.2449 2.43944,-1.07653 3.333481,-1.56798 0.625102,-0.31869 0.83294,-0.31388 1.045069,-0.0583 0.0892,0.80732 -0.382738,1.23601 -0.989959,1.63784 -2.071518,1.37086 -2.413839,1.4113 -4.429879,2.22013 -1.575801,0.64243 -3.26952,0.97438 -4.98198,0.97638 -1.31885,0.001 -3.802891,-0.17367 -4.746951,-0.33485 l -0.43154,-0.0737 v 14.53184 l 0.06109,12.00529 h -0.398388 -0.398351 c 1e-5,-7.52201 -0.06109,-4.65575 -0.06109,-12.17775 z"
       id="path49-6-82-3"
       inkscape:connector-curvature="0"
       sodipodi:nodetypes="cccccssccsccccaacaaaccccsccsscccsccaccccccccccccc" />
    <rect
       style="fill:#ffffff;stroke:none;stroke-width:0.29092312;stroke-miterlimit:4;stroke-dasharray:none;stroke-opacity:1"
       id="rect1210-7"
       width="0.70764863"
       height="34.678219"
       x="-45.365875"
       y="192.49734" />
    <rect
       style="fill:#ffffff;stroke:none;stroke-width:0.29876465;stroke-miterlimit:4;stroke-dasharray:none;stroke-opacity:1"
       id="rect1210-1-4"
       width="0.70764863"
       height="36.572849"
       x="-44.129059"
       y="192.96506" />
    <rect
       style="fill:#000000;stroke:#000000;stroke-width:0.5;stroke-miterlimit:4;stroke-dasharray:none;stroke-opacity:1"
       id="rect1163-5"
       width="77.775429"
       height="66.282845"
       x="-167.9789"
       y="176.72871" />
    <path
       style="fill:#ffffff;stroke:none;stroke-width:0.52769071;stroke-miterlimit:4;stroke-dasharray:none;stroke-opacity:0.03517588"
       d="m -114.626,215.02839 c 0.0413,0.007 0.0913,0.008 0.14958,0.001 7.73145,-7.35941 5.3788,-17.35931 0.44014,-21.63245 l 3.23855,-3.80142 c 0.12111,-0.72666 -4.41469,-0.43986 -5.55472,1.2374 -4.10271,-2.62386 -7.96793,-3.77296 -12.54704,-3.34144 -4.26666,0.40208 -10.77179,3.05542 -14.24565,7.69019 3.42133,-1.53957 4.24055,-1.97022 6.60641,-2.7225 19.61828,-6.23806 27.33528,8.02005 22.35554,20.53313 -0.64554,1.19622 -0.73122,1.98219 -0.44281,2.03609 z"
       id="path49-6-8-8-5-1"
       inkscape:connector-curvature="0"
       sodipodi:nodetypes="cccccscscc" />
    <path
       style="fill:#ffffff;stroke:none;stroke-width:0.5;stroke-miterlimit:4;stroke-dasharray:none;stroke-opacity:0.03517588"
       d="m -141.01221,197.95888 c -0.12903,-0.25805 -2.91949,1.51772 -3.34391,4.58933 -0.42442,3.07161 -0.23935,10.68905 4.59844,16.3557 l -2.54694,4.06999 c 2.18119,0.2685 4.199,-0.25389 5.82952,-1.98163 0.0359,-0.40812 4.73421,3.35659 12.11003,2.17412 9.11815,-1.43577 13.84888,-9.15985 12.64051,-10.32648 -8.53407,12.39693 -30.07803,8.10804 -30.27447,-9.05401 0.0646,-3.34042 0.50014,-3.54962 0.98682,-5.82702 z"
       id="path49-6-8-0-84"
       inkscape:connector-curvature="0"
       sodipodi:nodetypes="czccccccc" />
    <path
       style="fill:#ffffff;stroke:none;stroke-width:0.5;stroke-miterlimit:4;stroke-dasharray:none;stroke-opacity:0.03517588"
       d="m -124.4671,212.55256 v -14.45895 l -0.36515,-0.0719 c -1.70986,-0.3368 -2.04971,-0.37585 -2.17562,-0.24994 -0.0917,0.0917 0.0522,1.86327 0.24835,5.41052 0.17142,3.10069 0.11145,5.20867 0.0592,5.86901 -0.12499,1.57984 -0.22517,1.43197 -0.53951,2.26987 -0.49074,1.3081 -5.04895,6.66323 -5.49294,6.49286 -0.32013,-0.12284 -0.22844,-0.33723 0.65954,-1.5421 0.46855,-0.63577 0.94711,-1.44258 1.06347,-1.79292 0.71837,-2.16279 1.03956,-0.99108 0.76574,-8.99472 0.0327,-2.29 -0.26743,-4.58344 -0.0846,-6.7609 l 0.12391,-1.13047 -2.23822,-0.1824 c -2.44424,-0.22807 -4.77541,-1.03925 -7.09415,-0.54133 -1.442,0.30965 -2.86305,1.05445 -3.88465,2.11821 -1.17672,1.22529 -1.99675,4.49131 -2.25701,4.56947 -0.45156,0.0862 -0.78095,-0.46098 -0.87636,-0.85867 -0.45753,-1.90709 0.65462,-4.04248 1.87689,-5.57623 0.92662,-1.16275 2.39854,-1.8431 3.8032,-2.33048 2.76108,-0.95803 4.80251,-1.56256 8.70653,-1.03395 0.9859,0.10664 2.14089,0.19508 2.56664,0.19653 l 0.77408,0.003 1.21452,-1.06225 c 0.66798,-0.58424 1.32236,-1.06226 1.45418,-1.06226 0.42745,0 0.42281,0.39149 -0.01,0.83864 -0.35892,0.37086 -0.90806,1.39184 -0.79557,1.47916 0.0701,0.0544 1.9361,0.33784 2.22426,0.33784 0.25429,0 0.27318,-0.078 0.27318,-1.12865 v -1.12947 h 0.39835 0.39834 v 1.1992 c 0,0.8401 0.0497,1.21646 0.16598,1.25684 0.0913,0.0317 1.38823,0.21029 2.8821,0.39688 3.39496,0.42402 5.48846,0.85314 8.15368,0.31067 1.20328,-0.2449 2.43944,-1.07653 3.33348,-1.56798 0.6251,-0.31869 0.83294,-0.31388 1.04507,-0.0583 0.0892,0.80732 -0.38274,1.23601 -0.98996,1.63784 -2.07152,1.37086 -2.41384,1.4113 -4.42988,2.22013 -1.5758,0.64243 -3.26952,0.97438 -4.98198,0.97638 -1.31885,0.001 -3.80289,-0.17367 -4.74695,-0.33485 l -0.43154,-0.0737 v 14.53184 l 0.0611,12.00529 h -0.39839 -0.39835 c 1e-5,-7.52201 -0.0611,-4.65575 -0.0611,-12.17775 z"
       id="path49-6-82-6"
       inkscape:connector-curvature="0"
       sodipodi:nodetypes="cccccssccsccccaacaaaccccsccsscccsccaccccccccccccc" />
    <rect
       style="fill:#ffffff;stroke:none;stroke-width:0.29204205;stroke-miterlimit:4;stroke-dasharray:none;stroke-opacity:1"
       id="rect1210-6"
       width="0.70764863"
       height="34.945488"
       x="-123.1413"
       y="192.23009" />
    <rect
       style="fill:#000000;stroke:#000000;stroke-width:0.5;stroke-miterlimit:4;stroke-dasharray:none;stroke-opacity:1"
       id="rect1163-7-5"
       width="77.775429"
       height="66.282845"
       x="265.53229"
       y="139.84552" />
    <path
       style="fill:#ffffff;stroke:none;stroke-width:0.4724237;stroke-miterlimit:4;stroke-dasharray:none;stroke-opacity:1"
       d="m 130.39598,95.454008 c 0.0975,0.0165 0.21566,0.0189 0.35332,0.002 18.26262,-17.3838 12.70536,-41.004749 1.03966,-51.098412 l 7.64985,-8.979404 c 0.28608,-1.71616 -10.42802,-1.038704 -13.1209,2.923182 -9.6911,-6.197868 -18.82119,-8.912178 -29.637606,-7.892877 -10.07835,0.949761 -25.523148,7.217264 -33.728816,18.165163 7.529181,-5.005116 12.360448,-6.548241 17.891345,-8.08017 44.571557,-12.345257 62.375467,20.688898 50.599127,50.150988 -1.52484,2.82558 -1.72724,4.68217 -1.04598,4.80946 z"
       id="path49-6-8-8-5-26-7"
       inkscape:connector-curvature="0"
       sodipodi:nodetypes="cccccscscc" />
    <path
       style="fill:#ffffff;stroke:none;stroke-width:0.4724237;stroke-miterlimit:4;stroke-dasharray:none;stroke-opacity:1"
       d="m 69.31858,55.133829 c -0.30477,-0.609545 -6.896181,3.585034 -7.898711,10.840539 -1.002533,7.25548 -0.565361,25.2488 10.862071,38.634102 l -6.016174,9.6138 c 5.152218,0.63423 9.918519,-0.59975 13.770002,-4.68087 0.08471,-0.964 11.18278,7.92869 28.605322,5.13556 21.53816,-3.39147 32.7127,-21.636682 29.85838,-24.392402 C 118.341,119.5676 67.451623,109.43671 66.987608,68.897918 67.140272,61.007472 68.168996,60.513317 69.31858,55.133829 Z"
       id="path49-6-8-0-9-4"
       inkscape:connector-curvature="0"
       sodipodi:nodetypes="czccccccc" />
    <path
       style="fill:#ffffff;stroke:none;stroke-width:0.4724237;stroke-miterlimit:4;stroke-dasharray:none;stroke-opacity:1"
       d="M 103.40028,89.605828 V 55.452077 l -0.86253,-0.169836 c -4.038892,-0.795562 -4.841657,-0.887803 -5.139072,-0.590388 -0.216606,0.216606 0.123303,4.401264 0.586634,12.780285 0.404907,7.3242 0.263261,12.30348 0.139839,13.8633 -0.295248,3.73177 -0.531882,3.38248 -1.274393,5.36168 -1.159176,3.08988 -10.58986,14.002112 -11.638621,13.599672 -0.756185,-0.29016 -0.539605,-0.796572 1.557912,-3.642624 1.106765,-1.50176 2.289517,-3.746578 2.578856,-4.569167 1.92764,-5.480257 1.249348,-3.628552 0.606046,-19.108444 0.07717,-5.40925 -0.832153,-10.893445 -0.400216,-16.036863 l 0.292701,-2.670304 -5.28695,-0.43085 c -5.773581,-0.538729 -10.006365,-1.957535 -14.784321,-0.726281 -2.733181,0.704336 -5.304061,2.363016 -7.203124,4.451057 -2.699987,2.968664 -4.71656,10.609004 -5.331325,10.793634 -1.066652,0.20361 -1.844713,-1.08889 -2.07008,-2.02828 -1.080743,-4.504777 1.62574,-9.48691 4.433445,-13.171719 2.188926,-2.872738 5.594945,-4.80788 8.983597,-6.057275 5.231483,-1.928835 7.398342,-3.138547 16.620092,-1.889908 2.328815,0.251897 5.057033,0.460802 6.06271,0.464227 l 1.828471,0.0071 2.868837,-2.509161 c 1.577848,-1.380044 3.123567,-2.509183 3.434942,-2.509183 1.00969,0 0.99873,0.924745 -0.02359,1.980966 -0.847804,0.876016 -2.14494,3.287691 -1.879225,3.493951 0.165584,0.1285 4.573295,0.798018 5.253955,0.798018 0.60067,0 0.64529,-0.184244 0.64529,-2.666004 v -2.667942 h 0.94095 1.24804 v 2.832652 c 0,1.984416 0.11739,2.873423 0.39206,2.968805 0.21566,0.07488 2.97205,0.49673 6.50075,0.937478 8.01929,1.001585 12.96439,2.015218 19.25995,0.733839 2.8423,-0.578483 5.76226,-2.542892 7.87408,-3.703755 1.47657,-0.752783 2.36911,-0.67055 2.87018,-0.06684 0.21069,1.906986 -0.90408,2.919602 -2.3384,3.868772 -4.89317,3.238133 -5.70177,3.333658 -10.4639,5.24421 -3.72223,1.517496 -7.72299,2.301601 -11.76803,2.306325 -3.11528,0.0023 -8.98288,-0.410229 -11.21286,-0.790955 l -1.01935,-0.174086 v 34.325916 l 0.1443,28.357921 -1.34264,-0.0709 h -0.94095 c 3e-5,-17.76788 -0.1443,-10.99743 -0.1443,-28.765292 z"
       id="path49-6-82-3-2"
       inkscape:connector-curvature="0"
       sodipodi:nodetypes="cccccssccsccccaacaaaccccsccsscccsccaccccccccccccc" />
    <rect
       style="fill:#ffffff;stroke:none;stroke-width:0.4724237;stroke-miterlimit:4;stroke-dasharray:none;stroke-opacity:1"
       id="rect1210-7-9"
       width="2.2060859"
       height="81.847252"
       x="107.89388"
       y="42.43351" />
    <rect
       style="fill:#ffffff;stroke:none;stroke-width:0.53543639;stroke-miterlimit:4;stroke-dasharray:none;stroke-opacity:1"
       id="rect1210-1-4-1"
       width="2.1471963"
       height="86.389397"
       x="112.30296"
       y="43.404686" />
  </g>
</svg>
